<svg width="753" height="280" viewBox="0 0 753 280" fill="none" xmlns="http://www.w3.org/2000/svg">
<circle cx="140" cy="140" r="140" fill="#F9B400"/>
<path d="M91.6919 80.8L89.4519 150.4L91.3719 192H68.9719L70.8919 153.12L68.9719 84.8L91.6919 80.8ZM155.973 176.32C147.653 186.773 140.453 192 134.373 192C126.8 192 120.56 188.907 115.653 182.72C110.853 176.533 108.453 168.587 108.453 158.88C108.453 145.547 112.133 134.293 119.493 125.12C126.96 115.947 136.08 111.36 146.853 111.36L155.813 112.64V109.6L153.893 72.16L175.813 68.16L173.733 150.4V164.48C173.733 170.88 175.333 178.24 178.533 186.56L161.253 193.76C158.16 187.36 156.4 181.547 155.973 176.32ZM126.373 150.56C126.373 157.387 127.6 162.72 130.053 166.56C132.613 170.4 136.24 172.32 140.933 172.32C145.733 172.32 150.693 170.4 155.813 166.56V132C149.413 130.72 144.666 130.08 141.573 130.08C136.773 130.08 133.04 131.787 130.373 135.2C127.706 138.613 126.373 143.733 126.373 150.56ZM215.486 110.56L213.566 150.4L215.326 188L193.886 192L195.806 153.12L194.046 114.56L215.486 110.56ZM192.926 87.2C192.926 83.5733 194.312 80.3733 197.086 77.6C199.859 74.72 203.059 73.28 206.686 73.28C210.312 73.28 213.086 74.2933 215.006 76.32C216.926 78.24 217.886 81.1733 217.886 85.12C217.886 89.0667 216.499 92.48 213.726 95.36C211.059 98.1333 207.912 99.52 204.286 99.52C200.766 99.52 197.992 98.3467 195.966 96C193.939 93.6533 192.926 90.72 192.926 87.2Z" fill="#5E1A57"/>
<path d="M314.92 20H328.12V104H314.92V20ZM338.006 20H354.566L367.406 70.28H367.646V20H379.406V104H365.846L350.006 42.68H349.766V104H338.006V20ZM406.377 105.2C399.977 105.2 395.137 103.4 391.857 99.8C388.577 96.12 386.937 90.88 386.937 84.08V79.28H399.417V85.04C399.417 90.48 401.697 93.2 406.257 93.2C408.497 93.2 410.177 92.56 411.297 91.28C412.497 89.92 413.097 87.76 413.097 84.8C413.097 81.28 412.297 78.2 410.697 75.56C409.097 72.84 406.137 69.6 401.817 65.84C396.377 61.04 392.577 56.72 390.417 52.88C388.257 48.96 387.177 44.56 387.177 39.68C387.177 33.04 388.857 27.92 392.217 24.32C395.577 20.64 400.457 18.8 406.857 18.8C413.177 18.8 417.937 20.64 421.137 24.32C424.417 27.92 426.057 33.12 426.057 39.92V43.4H413.577V39.08C413.577 36.2 413.017 34.12 411.897 32.84C410.777 31.48 409.137 30.8 406.977 30.8C402.577 30.8 400.377 33.48 400.377 38.84C400.377 41.88 401.177 44.72 402.777 47.36C404.457 50 407.457 53.2 411.777 56.96C417.297 61.76 421.097 66.12 423.177 70.04C425.257 73.96 426.297 78.56 426.297 83.84C426.297 90.72 424.577 96 421.137 99.68C417.777 103.36 412.857 105.2 406.377 105.2ZM444.185 32H430.385V20H471.185V32H457.385V104H444.185V32ZM477.576 20H490.776V104H477.576V20ZM510.982 32H497.182V20H537.982V32H524.182V104H510.982V32ZM563.573 105.2C557.173 105.2 552.293 103.4 548.933 99.8C545.573 96.12 543.893 90.88 543.893 84.08V20H557.093V85.04C557.093 87.92 557.653 90 558.773 91.28C559.973 92.56 561.653 93.2 563.813 93.2C565.973 93.2 567.613 92.56 568.733 91.28C569.933 90 570.533 87.92 570.533 85.04V20H583.253V84.08C583.253 90.88 581.573 96.12 578.213 99.8C574.853 103.4 569.973 105.2 563.573 105.2ZM602.974 32H589.174V20H629.974V32H616.174V104H602.974V32ZM654.977 105.2C648.497 105.2 643.537 103.36 640.097 99.68C636.657 96 634.937 90.8 634.937 84.08V39.92C634.937 33.2 636.657 28 640.097 24.32C643.537 20.64 648.497 18.8 654.977 18.8C661.457 18.8 666.417 20.64 669.857 24.32C673.297 28 675.017 33.2 675.017 39.92V84.08C675.017 90.8 673.297 96 669.857 99.68C666.417 103.36 661.457 105.2 654.977 105.2ZM654.977 93.2C659.537 93.2 661.817 90.44 661.817 84.92V39.08C661.817 33.56 659.537 30.8 654.977 30.8C650.417 30.8 648.137 33.56 648.137 39.08V84.92C648.137 90.44 650.417 93.2 654.977 93.2ZM314.92 164H335.08C341.64 164 346.56 165.76 349.84 169.28C353.12 172.8 354.76 177.96 354.76 184.76V227.24C354.76 234.04 353.12 239.2 349.84 242.72C346.56 246.24 341.64 248 335.08 248H314.92V164ZM334.84 236C337 236 338.64 235.36 339.76 234.08C340.96 232.8 341.56 230.72 341.56 227.84V184.16C341.56 181.28 340.96 179.2 339.76 177.92C338.64 176.64 337 176 334.84 176H328.12V236H334.84ZM363.67 164H399.67V176H376.87V198.2H394.99V210.2H376.87V236H399.67V248H363.67V164ZM426.483 164H439.683V248H426.483V164ZM449.568 164H469.728C476.288 164 481.208 165.76 484.488 169.28C487.768 172.8 489.408 177.96 489.408 184.76V227.24C489.408 234.04 487.768 239.2 484.488 242.72C481.208 246.24 476.288 248 469.728 248H449.568V164ZM469.488 236C471.648 236 473.288 235.36 474.408 234.08C475.608 232.8 476.208 230.72 476.208 227.84V184.16C476.208 181.28 475.608 179.2 474.408 177.92C473.288 176.64 471.648 176 469.488 176H462.768V236H469.488ZM498.318 164H511.518V248H498.318V164ZM540.484 249.2C534.004 249.2 529.044 247.36 525.604 243.68C522.164 240 520.444 234.8 520.444 228.08V183.92C520.444 177.2 522.164 172 525.604 168.32C529.044 164.64 534.004 162.8 540.484 162.8C546.964 162.8 551.924 164.64 555.364 168.32C558.804 172 560.524 177.2 560.524 183.92V228.08C560.524 234.8 558.804 240 555.364 243.68C551.924 247.36 546.964 249.2 540.484 249.2ZM540.484 237.2C545.044 237.2 547.324 234.44 547.324 228.92V183.08C547.324 177.56 545.044 174.8 540.484 174.8C535.924 174.8 533.644 177.56 533.644 183.08V228.92C533.644 234.44 535.924 237.2 540.484 237.2ZM569.451 164H588.291L596.691 224.12H596.931L605.331 164H624.171V248H611.691V184.4H611.451L601.851 248H590.811L581.211 184.4H580.971V248H569.451V164ZM644.222 164H662.102L675.782 248H662.582L660.182 231.32V231.56H645.182L642.782 248H630.542L644.222 164ZM658.622 220.16L652.742 178.64H652.502L646.742 220.16H658.622ZM698.994 249.2C692.594 249.2 687.754 247.4 684.474 243.8C681.194 240.12 679.554 234.88 679.554 228.08V223.28H692.034V229.04C692.034 234.48 694.314 237.2 698.874 237.2C701.114 237.2 702.794 236.56 703.914 235.28C705.114 233.92 705.714 231.76 705.714 228.8C705.714 225.28 704.914 222.2 703.314 219.56C701.714 216.84 698.754 213.6 694.434 209.84C688.994 205.04 685.194 200.72 683.034 196.88C680.874 192.96 679.794 188.56 679.794 183.68C679.794 177.04 681.474 171.92 684.834 168.32C688.194 164.64 693.074 162.8 699.474 162.8C705.794 162.8 710.554 164.64 713.754 168.32C717.034 171.92 718.674 177.12 718.674 183.92V187.4H706.194V183.08C706.194 180.2 705.634 178.12 704.514 176.84C703.394 175.48 701.754 174.8 699.594 174.8C695.194 174.8 692.994 177.48 692.994 182.84C692.994 185.88 693.794 188.72 695.394 191.36C697.074 194 700.074 197.2 704.394 200.96C709.914 205.76 713.714 210.12 715.794 214.04C717.874 217.96 718.914 222.56 718.914 227.84C718.914 234.72 717.194 240 713.754 243.68C710.394 247.36 705.474 249.2 698.994 249.2Z" fill="#5E1A57"/>
</svg>
