<svg width="280" height="280" viewBox="0 0 280 280" fill="none" xmlns="http://www.w3.org/2000/svg">
<circle cx="140" cy="140" r="140" fill="#F9B400"/>
<path d="M91.6919 80.8L89.4519 150.4L91.3719 192H68.9719L70.8919 153.12L68.9719 84.8L91.6919 80.8ZM155.973 176.32C147.653 186.773 140.453 192 134.373 192C126.8 192 120.56 188.907 115.653 182.72C110.853 176.533 108.453 168.587 108.453 158.88C108.453 145.547 112.133 134.293 119.493 125.12C126.96 115.947 136.08 111.36 146.853 111.36L155.813 112.64V109.6L153.893 72.16L175.813 68.16L173.733 150.4V164.48C173.733 170.88 175.333 178.24 178.533 186.56L161.253 193.76C158.16 187.36 156.4 181.547 155.973 176.32ZM126.373 150.56C126.373 157.387 127.6 162.72 130.053 166.56C132.613 170.4 136.24 172.32 140.933 172.32C145.733 172.32 150.693 170.4 155.813 166.56V132C149.413 130.72 144.666 130.08 141.573 130.08C136.773 130.08 133.04 131.787 130.373 135.2C127.706 138.613 126.373 143.733 126.373 150.56ZM215.486 110.56L213.566 150.4L215.326 188L193.886 192L195.806 153.12L194.046 114.56L215.486 110.56ZM192.926 87.2C192.926 83.5733 194.312 80.3733 197.086 77.6C199.859 74.72 203.059 73.28 206.686 73.28C210.312 73.28 213.086 74.2933 215.006 76.32C216.926 78.24 217.886 81.1733 217.886 85.12C217.886 89.0667 216.499 92.48 213.726 95.36C211.059 98.1333 207.912 99.52 204.286 99.52C200.766 99.52 197.992 98.3467 195.966 96C193.939 93.6533 192.926 90.72 192.926 87.2Z" fill="#5E1A57"/>
</svg>
